<?xml version="1.0" standalone="no"?>
<!DOCTYPE svg PUBLIC "-//W3C//DTD SVG 20010904//EN"
 "http://www.w3.org/TR/2001/REC-SVG-20010904/DTD/svg10.dtd">
<svg version="1.0" xmlns="http://www.w3.org/2000/svg"
 width="400.000000pt" height="134.000000pt" viewBox="0 0 400.000000 134.000000"
 preserveAspectRatio="xMidYMid meet">

<g transform="translate(0.000000,134.000000) scale(0.100000,-0.100000)"
fill="#000000" stroke="none">
<path d="M1952 1253 c-30 -43 -85 -157 -147 -304 -120 -283 -95 -250 -270
-372 -84 -59 -160 -110 -168 -113 -16 -6 -15 -11 -43 172 l-17 112 24 48 c27
55 77 94 120 94 22 0 29 5 29 19 0 47 -90 37 -144 -15 -68 -66 -84 -125 -66
-234 10 -60 10 -74 -3 -88 -8 -9 -26 -40 -41 -68 -31 -58 -79 -93 -101 -74
-11 9 0 51 68 250 88 256 90 271 34 278 -36 4 -46 -14 -122 -233 -36 -105 -75
-208 -85 -230 -23 -48 -74 -83 -95 -65 -11 9 0 51 68 250 88 256 90 271 34
278 -18 2 -30 -4 -41 -20 -8 -13 -49 -122 -91 -243 -61 -175 -83 -226 -106
-248 -32 -30 -37 -31 -58 -18 -12 8 -6 32 32 143 26 73 47 143 47 156 0 33
-40 49 -77 30 -18 -9 -37 -12 -49 -7 -38 15 -91 9 -125 -14 -29 -19 -40 -40
-76 -137 -23 -63 -42 -131 -42 -151 -1 -47 29 -85 79 -100 33 -10 44 -9 79 8
41 20 42 20 78 2 44 -22 64 -23 118 -4 34 12 45 12 84 -1 46 -16 85 -12 133
12 17 9 29 10 33 4 3 -5 24 -14 45 -20 61 -16 116 2 169 57 34 36 42 41 36 22
-4 -13 -36 -54 -71 -91 -101 -107 -124 -170 -83 -222 58 -73 160 27 194 192 8
36 20 71 27 78 31 30 308 222 312 215 7 -11 -34 -174 -50 -200 -9 -12 -13 -33
-10 -45 3 -11 -2 -67 -10 -123 -17 -108 -14 -137 12 -131 11 2 26 38 48 110
18 59 39 114 46 122 9 11 31 16 74 16 171 1 309 62 500 222 22 18 37 26 34 17
-14 -37 -30 -171 -24 -203 8 -41 47 -76 85 -76 44 0 132 59 216 145 l81 81 -9
-57 c-5 -32 -7 -73 -3 -93 8 -41 47 -76 85 -76 44 0 132 59 220 148 47 47 81
77 77 67 -15 -40 -56 -195 -56 -214 0 -32 11 -51 30 -51 22 0 42 23 75 90 68
137 227 343 252 327 6 -4 14 -39 17 -79 9 -93 36 -155 70 -164 45 -11 93 16
195 107 100 90 112 104 104 127 -9 24 -31 11 -121 -72 -78 -73 -136 -116 -156
-116 -14 0 -34 62 -40 125 -13 128 -42 158 -112 115 -38 -24 -125 -128 -184
-220 -57 -89 -46 -37 35 170 56 140 73 196 65 204 -20 20 -44 -9 -80 -96 -38
-91 -123 -201 -251 -324 -148 -141 -197 -125 -165 53 9 53 28 125 42 161 21
50 23 66 14 72 -20 12 -37 2 -51 -33 -28 -67 -209 -267 -288 -318 -55 -36 -78
-37 -93 -4 -15 34 12 192 48 283 21 50 23 66 14 72 -17 11 -35 3 -46 -19 -9
-18 -123 -120 -209 -186 -96 -73 -260 -134 -362 -135 -55 0 -56 18 -4 55 88
60 211 213 211 261 0 30 -24 48 -55 40 -38 -10 -107 -84 -170 -181 -30 -47
-58 -85 -61 -85 -25 0 70 280 132 390 58 103 161 327 164 357 4 34 0 43 -19
43 -11 0 -28 -12 -39 -27z m-19 -583 c-9 -16 -41 -54 -71 -82 l-54 -53 21 42
c11 23 38 60 59 83 47 48 71 54 45 10z m-1264 -18 c7 -13 3 -40 -13 -93 -29
-93 -41 -115 -68 -130 -17 -9 -24 -8 -34 5 -9 14 -6 35 18 114 17 53 35 103
40 110 15 18 46 15 57 -6z m579 -439 c-26 -52 -52 -73 -68 -57 -16 16 2 55 47
105 35 39 38 41 41 20 2 -13 -7 -43 -20 -68z"/>
<path d="M2401 871 c-13 -24 8 -55 34 -50 28 6 42 34 26 53 -18 22 -48 20 -60
-3z"/>
<path d="M2771 871 c-13 -24 8 -55 34 -50 28 6 42 34 26 53 -18 22 -48 20 -60
-3z"/>
</g>
</svg>
